<svg id="root" width="1130" height="604" style="left:0;top:0" viewBox="0 0 1130 604" preserveAspectRatio="xMinYMin" xmlns="http://www.w3.org/2000/svg" xmlns:xlink="http://www.w3.org/1999/xlink" xmlns:c="http://www.easyeda.com/" class="bw-electron"><g id="g1" c_spicecmd="TRAN`1u`1m`0`{AC`dec`10`1Hz`1Meg`{DC`0``0`0`{TF```" xmlns="http://www.w3.org/2000/svg"><rect x="0" y="0" width="1130" height="604" stroke="#FFFFFF" stroke-width="1" id="gge311" fill="#FFFFFF"/><g c_partid="part_annotation" id="gge312" c_origin="20,30"><text x="20" y="30" stroke="none" text-anchor="start" fill="#FF0000" font-size="12pt">V(xoscilloscope_a)</text></g><g c_partid="part_annotation" id="gge313" c_origin="585,30"><text x="585" y="30" stroke="none" text-anchor="start" fill="#0000FF" font-size="12pt">V(xoscilloscope_b)</text></g><rect x="70" y="50" width="990" height="519" id="gge314" stroke="#333333" stroke-width="1" fill="#FFFFFF"/><g c_partid="part_annotation" id="gge315" c_origin="70,586"><text x="70" y="586" stroke="none" text-anchor="middle" fill="#333333" font-size="12pt">-50ms</text></g><polyline points="211.42857142857142 50 211.42857142857142 569" stroke="#333333" stroke-width="1" stroke-dasharray="2,8" fill="none" id="gge316" class="px1"/><g c_partid="part_annotation" id="gge317" c_origin="211.42857142857142,586"><text x="211.42857142857142" y="586" stroke="none" text-anchor="middle" fill="#333333" font-size="12pt">0s</text></g><polyline points="352.85714285714283 50 352.85714285714283 569" stroke="#333333" stroke-width="1" stroke-dasharray="2,8" fill="none" id="gge318" class="px1"/><g c_partid="part_annotation" id="gge319" c_origin="352.85714285714283,586"><text x="352.85714285714283" y="586" stroke="none" text-anchor="middle" fill="#333333" font-size="12pt">50ms</text></g><polyline points="494.2857142857142 50 494.2857142857142 569" stroke="#333333" stroke-width="1" stroke-dasharray="2,8" fill="none" id="gge320" class="px1"/><g c_partid="part_annotation" id="gge321" c_origin="494.2857142857142,586"><text x="494.2857142857142" y="586" stroke="none" text-anchor="middle" fill="#333333" font-size="12pt">100ms</text></g><polyline points="635.7142857142857 50 635.7142857142857 569" stroke="#333333" stroke-width="1" stroke-dasharray="2,8" fill="none" id="gge322" class="px1"/><g c_partid="part_annotation" id="gge323" c_origin="635.7142857142857,586"><text x="635.7142857142857" y="586" stroke="none" text-anchor="middle" fill="#333333" font-size="12pt">150ms</text></g><polyline points="777.1428571428571 50 777.1428571428571 569" stroke="#333333" stroke-width="1" stroke-dasharray="2,8" fill="none" id="gge324" class="px1"/><g c_partid="part_annotation" id="gge325" c_origin="777.1428571428571,586"><text x="777.1428571428571" y="586" stroke="none" text-anchor="middle" fill="#333333" font-size="12pt">200ms</text></g><polyline points="918.5714285714284 50 918.5714285714284 569" stroke="#333333" stroke-width="1" stroke-dasharray="2,8" fill="none" id="gge326" class="px1"/><g c_partid="part_annotation" id="gge327" c_origin="918.5714285714284,586"><text x="918.5714285714284" y="586" stroke="none" text-anchor="middle" fill="#333333" font-size="12pt">250ms</text></g><polyline points="1060 50 1060 569" stroke="#333333" stroke-width="1" stroke-dasharray="2,8" fill="none" id="gge328" class="px1"/><g c_partid="part_annotation" id="gge329" c_origin="1060,586"><text x="1060" y="586" stroke="none" text-anchor="middle" fill="#333333" font-size="12pt">300ms</text></g><g c_partid="part_annotation" id="gge330" c_origin="65,50"><text x="65" y="50" stroke="none" text-anchor="end" fill="#333333" font-size="12pt">15V</text></g><polyline points="70 136.5 1060 136.5" stroke="#333333" stroke-width="1" stroke-dasharray="2,8" fill="none" id="gge331" class="px1"/><g c_partid="part_annotation" id="gge332" c_origin="65,136.5"><text x="65" y="136.5" stroke="none" text-anchor="end" fill="#333333" font-size="12pt">10V</text></g><polyline points="70 223 1060 223" stroke="#333333" stroke-width="1" stroke-dasharray="2,8" fill="none" id="gge333" class="px1"/><g c_partid="part_annotation" id="gge334" c_origin="65,223"><text x="65" y="223" stroke="none" text-anchor="end" fill="#333333" font-size="12pt">5V</text></g><polyline points="70 309.5 1060 309.5" stroke="#333333" stroke-width="1" stroke-dasharray="2,8" fill="none" id="gge335" class="px1"/><g c_partid="part_annotation" id="gge336" c_origin="65,309.5"><text x="65" y="309.5" stroke="none" text-anchor="end" fill="#333333" font-size="12pt">0V</text></g><polyline points="70 396 1060 396" stroke="#333333" stroke-width="1" stroke-dasharray="2,8" fill="none" id="gge337" class="px1"/><g c_partid="part_annotation" id="gge338" c_origin="65,396"><text x="65" y="396" stroke="none" text-anchor="end" fill="#333333" font-size="12pt">-5V</text></g><polyline points="70 482.5 1060 482.5" stroke="#333333" stroke-width="1" stroke-dasharray="2,8" fill="none" id="gge339" class="px1"/><g c_partid="part_annotation" id="gge340" c_origin="65,482.5"><text x="65" y="482.5" stroke="none" text-anchor="end" fill="#333333" font-size="12pt">-10V</text></g><polyline points="70 569 1060 569" stroke="#333333" stroke-width="1" stroke-dasharray="2,8" fill="none" id="gge341" class="px1"/><g c_partid="part_annotation" id="gge342" c_origin="65,569"><text x="65" y="569" stroke="none" text-anchor="end" fill="#333333" font-size="12pt">-15V</text></g><polyline points="211.42857146 394.27000001 211.42857149 392.54000001 211.42857154 389.08000003 211.42857165 382.16000006 211.42857188 368.32000011 211.42857233 340.64000022 211.42857324 285.28000044 211.42857426 223 211.42857436 223 211.42857456 223 211.42857497 223 211.42857578 223 211.42857741 223 211.42858067 223 211.42858719 223 211.42860022 223 211.42862629 223 211.42867843 223 211.4287827 223 211.42899125 223 211.42940833 223 211.43024251 223 211.43191087 223 211.43524759 223 211.44192103 223 211.4552679 223 211.48196165 223 211.53534915 223 211.64212415 223 211.85567414 223 212.28277413 223 213.13697411 223 213.3505241 223 213.77762409 223 214.63182406 223 214.84537406 223 215.27247404 223 216.12667402 223 217.68220949 223 217.7313208 223 217.82954343 223 218.02598867 223 218.41887916 223 219.20466013 223 220.77622208 223 221.08614876 223 221.70600212 223 222.94570884 223 225.42512229 223 229.96772983 223 234.34641571 223 240.26388849 223 246.3790831 223 255.08057079 223 265.02334502 223 280.04075444 223 299.92455339 223 327.54732125 223 327.54732408 223 327.54732973 223 327.54734105 223 327.54736368 223 327.54740893 223 327.54749945 223 327.54768048 223 327.54804253 223 327.54876665 223 327.55021488 223 327.55311133 223 327.55890425 223 327.57049008 223 327.59366173 223 327.64000505 223 327.73269168 223 327.91806493 223 328.28881145 223 329.03030447 223 330.51329053 223 333.47926264 223 339.41120687 223 340.99325723 223 344.15735797 223 346.52894422 223 348.11397317 223 349.68708779 223 349.71091644 223 349.75857375 223 349.85388835 223 350.04451756 223 350.42577598 223 351.18829282 223 351.33211201 223 351.6197504 223 352.19502718 223 352.19503001 223 352.19503567 223 352.19504698 223 352.19506961 223 352.19511487 223 352.19520538 223 352.19538641 223 352.19574847 223 352.19647258 223 352.19792081 223 352.20081727 223 352.20661018 223 352.21819601 223 352.24136767 223 352.28771098 223 352.38039761 223 352.56577087 223 352.5657737 223 352.56577936 223 352.56579067 223 352.5658133 223 352.56585856 223 352.56594907 223 352.5661301 223 352.56649216 223 352.56721627 223 352.5686645 223 352.57156096 223 352.57735387 223 352.5889397 223 352.61211136 223 352.65845467 223 352.7511413 223 352.75114413 223 352.75114978 223 352.7511611 223 352.75118373 223 352.75122898 223 352.7513195 223 352.75150053 223 352.75186258 223 352.7525867 223 352.75403493 223 352.75693138 223 352.7627243 223 352.77431013 223 352.79748178 223 352.81080237 223 352.83050451 223 352.83050734 223 352.830513 223 352.83052431 223 352.83054694 223 352.8305922 223 352.83068271 223 352.83086374 223 352.8312258 223 352.83194991 223 352.83339814 223 352.8362946 223 352.84208751 223 352.84555986 223 352.85020099 223 352.85020382 223 352.85020948 223 352.85022079 223 352.85024342 223 352.85028868 223 352.85037919 223 352.85056022 223 352.85092228 223 352.85164639 223 352.85309462 223 352.85424923 223 352.85483647 223 352.85601097 223 352.8560138 223 352.85601945 223 352.85603077 223 352.8560534 223 352.85609865 223 352.85618917 223 352.8563702 223 352.85673225 223 352.85673508 223 352.85674074 223 352.85675205 223 352.85677468 223 352.85681994 223 352.85691045 223 352.85696466 223 352.85703728 223 352.85704011 223 352.85704576 223 352.85705708 223 352.85707971 223 352.85710043 223 352.85710424 223 352.85711186 223 352.85712711 223 352.85712994 223 352.8571356 223 352.85713842 223 352.85714003 223 352.85714248 223 352.85714286 223 352.85714362 223 352.85714416 223 352.85714461 223 352.8571455 223 352.85714569 223 352.85714586 233.89214453 352.85714622 255.6764324 352.85714693 299.24500813 352.85714836 386.3821608 352.85714851 396 352.8571488 396 352.85714937 396 352.85715051 396 352.85715279 396 352.85715735 396 352.85716647 396 352.8571847 396 352.85722117 396 352.85729412 396 352.85744001 396 352.85773179 396 352.85831535 396 352.85948246 396 352.8618167 396 352.86648516 396 352.8758221 396 352.89449597 396 352.93184371 396 353.00653919 396 353.15593015 396 353.45471208 396 354.05227593 396 354.20166689 396 354.50044881 396 355.09801266 396 356.29314035 396 356.50372636 396 356.92489837 396 357.7672424 396 359.24848607 396 359.3116578 396 359.43800128 396 359.69068823 396 360.19606213 396 361.20680993 396 363.22830553 396 366.61870463 396 370.25410194 396 374.88879073 396 379.91833191 396 386.4487099 396 393.97739789 396 404.12557875 396 416.93836842 396 436.27774123 396 463.90050909 396 466.66294643 396 472.18782111 396 483.23757049 396 483.23757332 396 483.23757897 396 483.23759029 396 483.23761292 396 483.23765817 396 483.23774869 396 483.23792972 396 483.23829177 396 483.23901589 396 483.24046412 396 483.24336057 396 483.24915349 396 483.26073932 396 483.28391097 396 483.33025429 396 483.42294092 396 483.60831417 396 483.97906069 396 484.72055372 396 486.20353977 396 489.16951188 396 489.16951471 396 489.16952037 396 489.16953168 396 489.16955431 396 489.16959957 396 489.16969008 396 489.16987111 396 489.17023317 396 489.17095728 396 489.17240551 396 489.17530197 396 489.18109488 396 489.19268071 396 489.21585237 396 489.26219568 396 489.35488231 396 489.54025557 396 489.91100208 396 490.65249511 396 492.13548117 396 492.135484 396 492.13548965 396 492.13550097 396 492.1355236 396 492.13556885 396 492.13565937 396 492.1358404 396 492.13620245 396 492.13692657 396 492.1383748 396 492.14127125 396 492.14706417 396 492.15865 396 492.18182165 396 492.22816497 396 492.3208516 396 492.50622485 396 492.87697137 396 493.54422126 396 493.54422409 396 493.54422974 396 493.54424106 396 493.54426369 396 493.54430894 396 493.54439946 396 493.54458049 396 493.54494254 396 493.54566666 396 493.54711489 396 493.55001134 396 493.55580426 396 493.56739009 396 493.59056174 396 493.63690506 396 493.72959169 396 493.91496494 396 493.91496777 396 493.91497343 396 493.91498474 396 493.91500737 396 493.91505263 396 493.91514314 396 493.91532417 396 493.91568623 396 493.91641034 396 493.91785857 396 493.92075503 396 493.92654794 396 493.93813377 396 493.96130543 396 494.00764874 396 494.10033537 396 494.10034103 396 494.10035234 396 494.10037497 396 494.10042023 396 494.10051074 396 494.10069177 396 494.10105383 396 494.10177794 396 494.10322617 396 494.10612263 396 494.11191554 396 494.12350137 396 494.14667303 396 494.19301634 396 494.19302766 396 494.19305029 396 494.19309554 396 494.19318606 396 494.19336709 396 494.19372914 396 494.19445326 396 494.19590149 396 494.19879794 396 494.20459086 396 494.21617669 396 494.23934834 396 494.23937097 396 494.23941623 396 494.23950674 396 494.23968777 396 494.24004983 396 494.24077394 396 494.24222217 396 494.24511863 396 494.25091154 396 494.26249737 396 494.26254263 396 494.26263314 396 494.26281417 396 494.26317623 396 494.26390034 396 494.26534857 396 494.26824503 396 494.27403794 396 494.27412846 396 494.27430949 396 494.27467154 396 494.27539566 396 494.27684389 396 494.27974034 396 494.27992137 396 494.28028343 396 494.28100754 396 494.28245577 396 494.28281783 396 494.28354194 396 494.28426606 396 494.28426889 396 494.28427454 396 494.28428586 396 494.28430849 396 494.28435374 396 494.28444426 396 494.28462529 396 494.28498734 396 494.28499017 396 494.28499583 396 494.28500714 396 494.28502977 396 494.28507503 396 494.28516554 396 494.28534657 396 494.28535223 396 494.28536354 396 494.28538617 396 494.28543143 396 494.28552194 396 494.28553326 396 494.28555589 396 494.28560114 396 494.28562377 396 494.28566903 396 494.28567186 396 494.28567751 396 494.28568883 396 494.28569166 396 494.28569731 396 494.28570297 396 494.2857058 396 494.28570863 396 494.28571146 396 494.28571429 396 494.28571457 378.70000097 494.28571513 344.10000051 494.28571598 292.20000101 494.28571711 223.00000009 494.28571723 223 494.28571745 223 494.28571791 223 494.28571881 223 494.28572062 223 494.28572424 223 494.28573148 223 494.28574597 223 494.28577493 223 494.28583286 223 494.28594872 223 494.28618043 223 494.28664387 223 494.28757073 223 494.28942447 223 494.29313193 223 494.30054686 223 494.31537672 223 494.34503644 223 494.40435589 223 494.52299477 223 494.76027255 223 495.23482809 223 496.18393918 223 496.42121695 223 496.8957725 223 497.84488359 223 498.0815061 223 498.55475114 223 499.50124121 223 500.92501224 223 501.01268721 223 501.18803715 223 501.53873702 223 502.24013678 223 503.64293629 223 506.44853531 223 509.91733622 223 514.17360062 223 518.9228928 223 524.80145474 223 531.73301707 223 540.66534991 223 551.97299546 223 567.99385473 223 591.7461768 223 608.09152069 223 635.71428854 223 635.71428883 240.29999903 635.71428939 274.90000189 635.71429052 344.10000282 635.71429137 396 635.7142916 396 635.71429205 396 635.71429296 396 635.71429477 396 635.71429839 396 635.71430563 396 635.71432011 396 635.71434907 396 635.714407 396 635.71452286 396 635.71475458 396 635.71521801 396 635.71614488 396 635.71799861 396 635.72170608 396 635.72912101 396 635.74395087 396 635.77361059 396 635.83293003 396 635.95156892 396 636.1888467 396 636.66340225 396 637.61251335 396 637.84979113 396 638.32434668 396 639.27345778 396 639.51008031 396 639.98332537 396 640.9298155 396 642.35358669 396 642.44126164 396 642.61661154 396 642.96731133 396 643.66871091 396 645.07151007 396 647.8771084 396 651.34590925 396 655.60217311 396 660.35146517 396 666.23002633 396 673.16158828 396 682.0939198 396 693.4015642 396 709.42242028 396 733.17473776 396 749.52008929 396 777.14285714 396 777.14285743 378.69999857 777.14285799 344.10000051 777.14285912 274.89999958 777.14285997 223.00000009 777.1428602 223 777.14286065 223 777.14286156 223 777.14286337 223 777.14286699 223 777.14287423 223 777.14288871 223 777.14291767 223 777.1429756 223 777.14309146 223 777.14332318 223 777.14378661 223 777.14471348 223 777.14656721 223 777.15027468 223 777.15768961 223 777.17251947 223 777.20217919 223 777.26149863 223 777.38013751 223 777.61741528 223 778.09197082 223 779.0410819 223 779.27835967 223 779.7529152 223 780.70202628 223 780.93864881 223 781.41189388 223 782.35838401 223 783.78215524 223 783.86983018 223 784.04518007 223 784.39587984 223 785.09727938 223 786.50007845 223 789.30567661 223 792.77447744 223 797.03074117 223 801.7800332 223 807.65859418 223 814.59015603 223 823.52248722 223 834.83013135 223 850.85098664 223 874.60330299 223 890.94866354 223 918.5714314 223.0000024 918.57143168 240.30000383 918.57143225 274.9000067 918.57143338 344.10000282 918.57143423 395.99999751 918.57143445 396 918.57143491 396 918.57143581 396 918.57143762 396 918.57144124 396 918.57144848 396 918.57146297 396 918.57149193 396 918.57154986 396 918.57166572 396 918.57189744 396 918.57236087 396 918.57328773 396 918.57514147 396 918.57884893 396 918.58626386 396 918.60109372 396 918.63075344 396 918.69007288 396 918.80871176 396 919.04598953 396 919.52054505 396 920.4696561 396 920.70693386 396 921.18148939 396 922.13060044 396 922.36722297 396 922.84046804 396 923.78695817 396 925.2107294 396 925.29840434 396 925.47375423 396 925.82445399 396 926.52585351 396 927.92865256 396 930.73425065 396 934.20305148 396 938.45931516 396 943.20860718 396 949.08716809 396 956.0187299 396 964.95106099 396 976.25870501 396 992.27956002 396" stroke="#FF0000" stroke-width="1" fill="none" id="gge343" class="px1"/><polyline points="211.42857146 307.77000001 211.42857149 306.04000003 211.42857154 302.58000008 211.42857165 295.66000024 211.42857188 281.82000084 211.42857233 254.1400031 211.42857324 198.78001195 211.42857426 136.50002809 211.42857436 136.50003011 211.42857456 136.50003416 211.42857497 136.50004224 211.42857578 136.50005842 211.42857741 136.50009077 211.42858067 136.50015548 211.42858719 136.50028489 211.42860022 136.50054372 211.42862629 136.50106137 211.42867843 136.50209666 211.4287827 136.50416723 211.42899125 136.5083083 211.42940833 136.51659013 211.43024251 136.53315262 211.43191087 136.56627282 211.43524759 136.63249421 211.44192103 136.76486092 211.4552679 137.02929039 211.48196165 137.55693588 211.53534915 138.60739151 211.64212415 140.68910869 211.85567414 144.77692869 212.28277413 152.65915687 213.13697411 167.31852644 213.3505241 170.72031712 213.77762409 177.36111806 214.63182406 189.71168101 214.84537406 192.57769989 215.27247404 198.17259465 216.12667402 208.57798106 217.68220949 225.12082859 217.7313208 225.59382471 217.82954343 226.53451411 218.02598867 228.38443048 218.41887916 231.96188252 219.20466013 238.65366838 220.77622208 250.3763433 221.08614876 252.40739491 221.70600212 256.3299543 222.94570884 263.39342397 225.42512229 274.8806259 229.96772983 289.19892513 234.34641571 297.35315257 240.26388849 303.51203035 246.3790831 306.62323278 255.08057079 308.5395342 265.02334502 309.23743849 280.04075444 309.48052248 299.92455339 309.5012842 327.54732125 309.49970925 327.54732408 309.49970925 327.54732973 309.49970925 327.54734105 309.49970925 327.54736368 309.49970925 327.54740893 309.49970925 327.54749945 309.49970926 327.54768048 309.49970926 327.54804253 309.49970928 327.54876665 309.4997093 327.55021488 309.49970935 327.55311133 309.49970944 327.55890425 309.49970964 327.57049008 309.49971002 327.59366173 309.49971079 327.64000505 309.49971233 327.73269168 309.49971537 327.91806493 309.49972137 328.28881145 309.49973298 329.03030447 309.49975477 330.51329053 309.49979324 333.47926264 309.49985339 339.41120687 309.49992786 340.99325723 309.49993987 344.15735797 309.49995835 346.52894422 309.49996833 348.11397317 309.49997361 349.68708779 309.49997798 349.71091644 309.49997804 349.75857375 309.49997816 349.85388835 309.4999784 350.04451756 309.49997887 350.42577598 309.49997977 351.18829282 309.49998147 351.33211201 309.49998177 351.6197504 309.49998237 352.19502718 309.49998349 352.19503001 309.49998349 352.19503567 309.49998349 352.19504698 309.49998349 352.19506961 309.49998349 352.19511487 309.49998349 352.19520538 309.49998349 352.19538641 309.49998349 352.19574847 309.49998349 352.19647258 309.4999835 352.19792081 309.4999835 352.20081727 309.4999835 352.20661018 309.49998351 352.21819601 309.49998354 352.24136767 309.49998358 352.28771098 309.49998367 352.38039761 309.49998384 352.56577087 309.49998418 352.5657737 309.49998418 352.56577936 309.49998418 352.56579067 309.49998418 352.5658133 309.49998418 352.56585856 309.49998418 352.56594907 309.49998418 352.5661301 309.49998418 352.56649216 309.49998418 352.56721627 309.49998418 352.5686645 309.49998419 352.57156096 309.49998419 352.57735387 309.4999842 352.5889397 309.49998422 352.61211136 309.49998426 352.65845467 309.49998435 352.7511413 309.49998451 352.75114413 309.49998451 352.75114978 309.49998451 352.7511611 309.49998451 352.75118373 309.49998451 352.75122898 309.49998451 352.7513195 309.49998451 352.75150053 309.49998451 352.75186258 309.49998451 352.7525867 309.49998452 352.75403493 309.49998452 352.75693138 309.49998452 352.7627243 309.49998453 352.77431013 309.49998455 352.79748178 309.4999846 352.81080237 309.49998462 352.83050451 309.49998465 352.83050734 309.49998465 352.830513 309.49998465 352.83052431 309.49998465 352.83054694 309.49998465 352.8305922 309.49998465 352.83068271 309.49998465 352.83086374 309.49998465 352.8312258 309.49998466 352.83194991 309.49998466 352.83339814 309.49998466 352.8362946 309.49998466 352.84208751 309.49998467 352.84555986 309.49998468 352.85020099 309.49998469 352.85020382 309.49998469 352.85020948 309.49998469 352.85022079 309.49998469 352.85024342 309.49998469 352.85028868 309.49998469 352.85037919 309.49998469 352.85056022 309.49998469 352.85092228 309.49998469 352.85164639 309.49998469 352.85309462 309.49998469 352.85424923 309.4999847 352.85483647 309.4999847 352.85601097 309.4999847 352.8560138 309.4999847 352.85601945 309.4999847 352.85603077 309.4999847 352.8560534 309.4999847 352.85609865 309.4999847 352.85618917 309.4999847 352.8563702 309.4999847 352.85673225 309.4999847 352.85673508 309.4999847 352.85674074 309.4999847 352.85675205 309.4999847 352.85677468 309.4999847 352.85681994 309.4999847 352.85691045 309.4999847 352.85696466 309.4999847 352.85703728 309.4999847 352.85704011 309.4999847 352.85704576 309.4999847 352.85705708 309.4999847 352.85707971 309.4999847 352.85710043 309.4999847 352.85710424 309.4999847 352.85711186 309.4999847 352.85712711 309.4999847 352.85712994 309.4999847 352.8571356 309.4999847 352.85713842 309.4999847 352.85714003 309.4999847 352.85714248 309.4999847 352.85714286 309.4999847 352.85714362 309.4999847 352.85714416 309.4999847 352.85714461 309.4999847 352.8571455 309.4999847 352.85714569 309.4999847 352.85714586 320.39212901 352.85714622 342.17641599 352.85714693 385.74498727 352.85714836 472.88212034 352.85714851 482.4999565 352.8571488 482.49995085 352.85714937 482.49993953 352.85715051 482.4999169 352.85715279 482.49987163 352.85715735 482.4997811 352.85716647 482.49960004 352.8571847 482.49923791 352.85722117 482.49851366 352.85729412 482.49706516 352.85744001 482.49416821 352.85773179 482.48837444 352.85831535 482.4767875 352.85948246 482.45361594 352.8618167 482.40728214 352.86648516 482.31465177 352.8758221 482.12953985 352.89449597 481.75991056 352.93184371 481.02302374 353.00653919 479.55868661 353.15593015 476.66735724 353.45471208 471.03093008 354.05227593 460.31875827 354.20166689 457.77615977 354.50044881 452.77669225 355.09801266 443.27507827 356.29314035 426.10152388 356.50372636 423.34955834 356.92489837 417.97552803 357.7672424 407.97093021 359.24848607 392.54034974 359.3116578 391.94254911 359.43800128 390.75555489 359.69068823 388.43247043 360.19606213 383.98274333 361.20680993 375.81520344 363.22830553 362.02734276 366.61870463 344.91527964 370.25410194 332.68809097 374.88879073 322.94412238 379.91833191 316.92121788 386.4487099 312.87491303 393.97739789 310.83836553 404.12557875 309.85317139 416.93836842 309.5538598 436.27774123 309.4971939 463.90050909 309.50063531 466.66294643 309.50046143 472.18782111 309.50023926 483.23757049 309.50005356 483.23757332 309.50005356 483.23757897 309.50005356 483.23759029 309.50005356 483.23761292 309.50005356 483.23765817 309.50005356 483.23774869 309.50005356 483.23792972 309.50005356 483.23829177 309.50005356 483.23901589 309.50005355 483.24046412 309.50005354 483.24336057 309.50005353 483.24915349 309.50005349 483.26073932 309.50005342 483.28391097 309.50005328 483.33025429 309.50005299 483.42294092 309.50005243 483.60831417 309.50005133 483.97906069 309.50004919 484.72055372 309.50004517 486.20353977 309.50003809 489.16951188 309.50002701 489.16951471 309.50002701 489.16952037 309.50002701 489.16953168 309.50002701 489.16955431 309.50002701 489.16959957 309.50002701 489.16969008 309.50002701 489.16987111 309.50002701 489.17023317 309.500027 489.17095728 309.500027 489.17240551 309.500027 489.17530197 309.50002699 489.18109488 309.50002697 489.19268071 309.50002694 489.21585237 309.50002686 489.26219568 309.50002672 489.35488231 309.50002644 489.54025557 309.50002588 489.91100208 309.5000248 490.65249511 309.50002278 492.13548117 309.50001921 492.135484 309.50001921 492.13548965 309.50001921 492.13550097 309.50001921 492.1355236 309.50001921 492.13556885 309.50001921 492.13565937 309.5000192 492.1358404 309.5000192 492.13620245 309.5000192 492.13692657 309.5000192 492.1383748 309.5000192 492.14127125 309.50001919 492.14706417 309.50001918 492.15865 309.50001915 492.18182165 309.5000191 492.22816497 309.500019 492.3208516 309.5000188 492.50622485 309.50001841 492.87697137 309.50001764 493.54422126 309.50001634 493.54422409 309.50001634 493.54422974 309.50001634 493.54424106 309.50001634 493.54426369 309.50001634 493.54430894 309.50001634 493.54439946 309.50001634 493.54458049 309.50001634 493.54494254 309.50001634 493.54566666 309.50001633 493.54711489 309.50001633 493.55001134 309.50001633 493.55580426 309.50001632 493.56739009 309.50001629 493.59056174 309.50001625 493.63690506 309.50001616 493.72959169 309.50001599 493.91496494 309.50001566 493.91496777 309.50001566 493.91497343 309.50001566 493.91498474 309.50001566 493.91500737 309.50001566 493.91505263 309.50001566 493.91514314 309.50001566 493.91532417 309.50001566 493.91568623 309.50001566 493.91641034 309.50001565 493.91785857 309.50001565 493.92075503 309.50001565 493.92654794 309.50001564 493.93813377 309.50001561 493.96130543 309.50001557 494.00764874 309.50001549 494.10033537 309.50001533 494.10034103 309.50001533 494.10035234 309.50001533 494.10037497 309.50001533 494.10042023 309.50001533 494.10051074 309.50001533 494.10069177 309.50001533 494.10105383 309.50001533 494.10177794 309.50001532 494.10322617 309.50001532 494.10612263 309.50001532 494.11191554 309.50001531 494.12350137 309.50001529 494.14667303 309.50001525 494.19301634 309.50001516 494.19302766 309.50001516 494.19305029 309.50001516 494.19309554 309.50001516 494.19318606 309.50001516 494.19336709 309.50001516 494.19372914 309.50001516 494.19445326 309.50001516 494.19590149 309.50001516 494.19879794 309.50001515 494.20459086 309.50001514 494.21617669 309.50001512 494.23934834 309.50001508 494.23937097 309.50001508 494.23941623 309.50001508 494.23950674 309.50001508 494.23968777 309.50001508 494.24004983 309.50001508 494.24077394 309.50001508 494.24222217 309.50001508 494.24511863 309.50001507 494.25091154 309.50001506 494.26249737 309.50001504 494.26254263 309.50001504 494.26263314 309.50001504 494.26281417 309.50001504 494.26317623 309.50001504 494.26390034 309.50001504 494.26534857 309.50001504 494.26824503 309.50001503 494.27403794 309.50001502 494.27412846 309.50001502 494.27430949 309.50001502 494.27467154 309.50001502 494.27539566 309.50001502 494.27684389 309.50001502 494.27974034 309.50001501 494.27992137 309.50001501 494.28028343 309.50001501 494.28100754 309.50001501 494.28245577 309.50001501 494.28281783 309.50001501 494.28354194 309.50001501 494.28426606 309.50001501 494.28426889 309.50001501 494.28427454 309.50001501 494.28428586 309.50001501 494.28430849 309.50001501 494.28435374 309.50001501 494.28444426 309.50001501 494.28462529 309.50001501 494.28498734 309.50001501 494.28499017 309.50001501 494.28499583 309.50001501 494.28500714 309.50001501 494.28502977 309.50001501 494.28507503 309.50001501 494.28516554 309.50001501 494.28534657 309.500015 494.28535223 309.500015 494.28536354 309.500015 494.28538617 309.500015 494.28543143 309.500015 494.28552194 309.500015 494.28553326 309.500015 494.28555589 309.500015 494.28560114 309.500015 494.28562377 309.500015 494.28566903 309.500015 494.28567186 309.500015 494.28567751 309.500015 494.28568883 309.500015 494.28569166 309.500015 494.28569731 309.500015 494.28570297 309.500015 494.2857058 309.500015 494.28570863 309.500015 494.28571146 309.500015 494.28571429 309.500015 494.28571457 292.20001654 494.28571513 257.60001832 494.28571598 205.70002641 494.28571711 136.50004346 494.28571723 136.50004562 494.28571745 136.50005011 494.28571791 136.5000591 494.28571881 136.50007707 494.28572062 136.50011302 494.28572424 136.50018491 494.28573148 136.50032871 494.28574597 136.50061629 494.28577493 136.50119146 494.28583286 136.50234178 494.28594872 136.50464241 494.28618043 136.50924358 494.28664387 136.51844554 494.28757073 136.536848 494.28942447 136.57364705 494.29313193 136.64722167 494.30054686 136.79427701 494.31537672 137.08801252 494.34503644 137.67398608 494.40435589 138.83996872 494.52299477 141.14827776 494.76027255 145.67186005 495.23482809 154.35921495 496.18393918 170.38762068 496.42121695 174.07599379 496.8957725 181.25715574 497.84488359 194.50659455 498.0815061 197.54728925 498.55475114 203.46787249 499.50124121 214.3939126 500.92501224 228.76264531 501.01268721 229.56706651 501.18803715 231.15987932 501.53873702 234.25122499 502.24013678 240.07503832 503.64293629 250.42085437 506.44853531 266.80797039 509.91733622 280.98415977 514.17360062 292.18060585 518.9228928 299.59987968 524.80145474 304.59490732 531.73301707 307.3868737 540.66534991 308.81917823 551.97299546 309.35506757 567.99385473 309.49391953 591.7461768 309.5009345 608.09152069 309.50002985 635.71428854 309.49999324 635.71428883 326.79999171 635.71428939 361.39999233 635.71429052 430.59998202 635.71429137 482.49996488 635.7142916 482.49996038 635.71429205 482.4999514 635.71429296 482.49993342 635.71429477 482.49989747 635.71429839 482.49982558 635.71430563 482.49968179 635.71432011 482.4993942 635.71434907 482.49881904 635.714407 482.49766871 635.71452286 482.49536808 635.71475458 482.49076692 635.71521801 482.48156495 635.71614488 482.46316249 635.71799861 482.42636343 635.72170608 482.35278881 635.72912101 482.20573346 635.74395087 481.91199793 635.77361059 481.32602433 635.83293003 480.1600416 635.95156892 477.85173238 636.1888467 473.32814977 636.66340225 464.64079422 637.61251335 448.61238734 637.84979113 444.92401397 638.32434668 437.74285151 639.27345778 424.49341177 639.51008031 421.45271673 639.98332537 415.53213283 640.9298155 404.60609156 642.35358669 390.23735668 642.44126164 389.43293566 642.61661154 387.8401232 642.96731133 384.74877818 643.66871091 378.92496599 645.07151007 368.57915167 647.8771084 352.19203746 651.34590925 338.01584569 655.60217311 326.81939861 660.35146517 319.40012302 666.23002633 314.40509451 673.16158828 311.61312719 682.0939198 310.1808222 693.4015642 309.64493256 709.42242028 309.50608049 733.17473776 309.4990655 749.52008929 309.49997015 777.14285714 309.50000676 777.14285743 292.20000589 777.14285799 257.60001007 777.14285912 188.40002038 777.14285997 136.50003521 777.1428602 136.50003962 777.14286065 136.5000486 777.14286156 136.50006658 777.14286337 136.50010253 777.14286699 136.50017442 777.14287423 136.50031821 777.14288871 136.5006058 777.14291767 136.50118096 777.1429756 136.50233129 777.14309146 136.50463192 777.14332318 136.50923308 777.14378661 136.51843505 777.14471348 136.53683751 777.14656721 136.57363656 777.15027468 136.64721118 777.15768961 136.79426653 777.17251947 137.08800206 777.20217919 137.67397564 777.26149863 138.83995833 777.38013751 141.14826749 777.61741528 145.67184999 778.09197082 154.35920531 779.0410819 170.38761182 779.27835967 174.07598511 779.7529152 181.25714743 780.70202628 194.50658693 780.93864881 197.54728202 781.41189388 203.46786602 782.35838401 214.39390748 783.78215524 228.76264283 783.86983018 229.56706381 784.04518007 231.15987618 784.39587984 234.25122104 785.09727938 240.07503295 786.50007845 250.42084685 789.30567661 266.80796061 792.77447744 280.98415297 797.03074117 292.1806003 801.7800332 299.59987632 807.65859418 304.59490505 814.59015603 307.38687259 823.52248722 308.8191777 834.83013135 309.35506741 850.85098664 309.4939195 874.60330299 309.5009345 890.94866354 309.50002985 918.5714314 309.49999417 918.57143168 326.79999504 918.57143225 361.39999566 918.57143338 430.59998054 918.57143423 482.49996091 918.57143445 482.49995891 918.57143491 482.49994992 918.57143581 482.49993195 918.57143762 482.499896 918.57144124 482.49982411 918.57144848 482.49968031 918.57146297 482.49939273 918.57149193 482.49881756 918.57154986 482.49766724 918.57166572 482.49536661 918.57189744 482.49076544 918.57236087 482.48156348 918.57328773 482.46316102 918.57514147 482.42636197 918.57884893 482.35278735 918.58626386 482.20573201 918.60109372 481.91199649 918.63075344 481.32602293 918.69007288 480.16004028 918.80871176 477.85173121 919.04598953 473.32814887 919.52054505 464.64079384 920.4696561 448.61238784 920.70693386 444.92401465 921.18148939 437.74285255 922.13060044 424.4934134 922.36722297 421.4527183 922.84046804 415.5321343 923.78695817 404.60609283 925.2107294 390.23735735 925.29840434 389.43293638 925.47375423 387.84012404 925.82445399 384.74877924 926.52585351 378.92496742 927.92865256 368.57915368 930.73425065 352.19204008 934.20305148 338.01584751 938.45931516 326.8194001 943.20860718 319.40012391 949.08716809 314.40509511 956.0187299 311.61312749 964.95106099 310.18082234 976.25870501 309.6449326 992.27956002 309.5060805" stroke="#0000FF" stroke-width="1" fill="none" id="gge344" class="px1"/></g></svg>