<svg id="root" width="1130" height="604" style="left:0;top:0" viewBox="0 0 1130 604" preserveAspectRatio="xMinYMin" xmlns="http://www.w3.org/2000/svg" xmlns:xlink="http://www.w3.org/1999/xlink" xmlns:c="http://www.easyeda.com/" class="bw-electron"><g id="g1" c_spicecmd="TRAN`1u`1m`0`{AC`dec`10`1Hz`1Meg`{DC`0``0`0`{TF```" xmlns="http://www.w3.org/2000/svg"><rect x="0" y="0" width="1130" height="604" stroke="#FFFFFF" stroke-width="1" id="gge969" fill="#FFFFFF"/><g c_partid="part_annotation" id="gge970" c_origin="20,30"><text x="20" y="30" stroke="none" text-anchor="start" fill="#FF0000" font-size="12pt">V(xoscilloscope_a)</text></g><g c_partid="part_annotation" id="gge971" c_origin="585,30"><text x="585" y="30" stroke="none" text-anchor="start" fill="#0000FF" font-size="12pt">V(xoscilloscope_b)</text></g><rect x="70" y="50" width="990" height="519" id="gge972" stroke="#333333" stroke-width="1" fill="#FFFFFF"/><g c_partid="part_annotation" id="gge973" c_origin="70,586"><text x="70" y="586" stroke="none" text-anchor="middle" fill="#333333" font-size="12pt">-20ms</text></g><polyline points="146.15384615384616 50 146.15384615384616 569" stroke="#333333" stroke-width="1" stroke-dasharray="2,8" fill="none" id="gge974" class="px1"/><g c_partid="part_annotation" id="gge975" c_origin="146.15384615384616,586"><text x="146.15384615384616" y="586" stroke="none" text-anchor="middle" fill="#333333" font-size="12pt">0s</text></g><polyline points="222.30769230769232 50 222.30769230769232 569" stroke="#333333" stroke-width="1" stroke-dasharray="2,8" fill="none" id="gge976" class="px1"/><g c_partid="part_annotation" id="gge977" c_origin="222.30769230769232,586"><text x="222.30769230769232" y="586" stroke="none" text-anchor="middle" fill="#333333" font-size="12pt">20ms</text></g><polyline points="298.46153846153845 50 298.46153846153845 569" stroke="#333333" stroke-width="1" stroke-dasharray="2,8" fill="none" id="gge978" class="px1"/><g c_partid="part_annotation" id="gge979" c_origin="298.46153846153845,586"><text x="298.46153846153845" y="586" stroke="none" text-anchor="middle" fill="#333333" font-size="12pt">40ms</text></g><polyline points="374.61538461538464 50 374.61538461538464 569" stroke="#333333" stroke-width="1" stroke-dasharray="2,8" fill="none" id="gge980" class="px1"/><g c_partid="part_annotation" id="gge981" c_origin="374.61538461538464,586"><text x="374.61538461538464" y="586" stroke="none" text-anchor="middle" fill="#333333" font-size="12pt">60ms</text></g><polyline points="450.76923076923083 50 450.76923076923083 569" stroke="#333333" stroke-width="1" stroke-dasharray="2,8" fill="none" id="gge982" class="px1"/><g c_partid="part_annotation" id="gge983" c_origin="450.76923076923083,586"><text x="450.76923076923083" y="586" stroke="none" text-anchor="middle" fill="#333333" font-size="12pt">80ms</text></g><polyline points="526.9230769230769 50 526.9230769230769 569" stroke="#333333" stroke-width="1" stroke-dasharray="2,8" fill="none" id="gge984" class="px1"/><g c_partid="part_annotation" id="gge985" c_origin="526.9230769230769,586"><text x="526.9230769230769" y="586" stroke="none" text-anchor="middle" fill="#333333" font-size="12pt">100ms</text></g><polyline points="603.0769230769231 50 603.0769230769231 569" stroke="#333333" stroke-width="1" stroke-dasharray="2,8" fill="none" id="gge986" class="px1"/><g c_partid="part_annotation" id="gge987" c_origin="603.0769230769231,586"><text x="603.0769230769231" y="586" stroke="none" text-anchor="middle" fill="#333333" font-size="12pt">120ms</text></g><polyline points="679.2307692307693 50 679.2307692307693 569" stroke="#333333" stroke-width="1" stroke-dasharray="2,8" fill="none" id="gge988" class="px1"/><g c_partid="part_annotation" id="gge989" c_origin="679.2307692307693,586"><text x="679.2307692307693" y="586" stroke="none" text-anchor="middle" fill="#333333" font-size="12pt">140ms</text></g><polyline points="755.3846153846155 50 755.3846153846155 569" stroke="#333333" stroke-width="1" stroke-dasharray="2,8" fill="none" id="gge990" class="px1"/><g c_partid="part_annotation" id="gge991" c_origin="755.3846153846155,586"><text x="755.3846153846155" y="586" stroke="none" text-anchor="middle" fill="#333333" font-size="12pt">160ms</text></g><polyline points="831.5384615384617 50 831.5384615384617 569" stroke="#333333" stroke-width="1" stroke-dasharray="2,8" fill="none" id="gge992" class="px1"/><g c_partid="part_annotation" id="gge993" c_origin="831.5384615384617,586"><text x="831.5384615384617" y="586" stroke="none" text-anchor="middle" fill="#333333" font-size="12pt">180ms</text></g><polyline points="907.6923076923077 50 907.6923076923077 569" stroke="#333333" stroke-width="1" stroke-dasharray="2,8" fill="none" id="gge994" class="px1"/><g c_partid="part_annotation" id="gge995" c_origin="907.6923076923077,586"><text x="907.6923076923077" y="586" stroke="none" text-anchor="middle" fill="#333333" font-size="12pt">200ms</text></g><polyline points="983.8461538461539 50 983.8461538461539 569" stroke="#333333" stroke-width="1" stroke-dasharray="2,8" fill="none" id="gge996" class="px1"/><g c_partid="part_annotation" id="gge997" c_origin="983.8461538461539,586"><text x="983.8461538461539" y="586" stroke="none" text-anchor="middle" fill="#333333" font-size="12pt">220ms</text></g><polyline points="1060 50 1060 569" stroke="#333333" stroke-width="1" stroke-dasharray="2,8" fill="none" id="gge998" class="px1"/><g c_partid="part_annotation" id="gge999" c_origin="1060,586"><text x="1060" y="586" stroke="none" text-anchor="middle" fill="#333333" font-size="12pt">240ms</text></g><g c_partid="part_annotation" id="gge1000" c_origin="65,50"><text x="65" y="50" stroke="none" text-anchor="end" fill="#333333" font-size="12pt">6V</text></g><polyline points="70 136.5 1060 136.5" stroke="#333333" stroke-width="1" stroke-dasharray="2,8" fill="none" id="gge1001" class="px1"/><g c_partid="part_annotation" id="gge1002" c_origin="65,136.5"><text x="65" y="136.5" stroke="none" text-anchor="end" fill="#333333" font-size="12pt">4V</text></g><polyline points="70 223 1060 223" stroke="#333333" stroke-width="1" stroke-dasharray="2,8" fill="none" id="gge1003" class="px1"/><g c_partid="part_annotation" id="gge1004" c_origin="65,223"><text x="65" y="223" stroke="none" text-anchor="end" fill="#333333" font-size="12pt">2V</text></g><polyline points="70 309.5 1060 309.5" stroke="#333333" stroke-width="1" stroke-dasharray="2,8" fill="none" id="gge1005" class="px1"/><g c_partid="part_annotation" id="gge1006" c_origin="65,309.5"><text x="65" y="309.5" stroke="none" text-anchor="end" fill="#333333" font-size="12pt">0V</text></g><polyline points="70 396 1060 396" stroke="#333333" stroke-width="1" stroke-dasharray="2,8" fill="none" id="gge1007" class="px1"/><g c_partid="part_annotation" id="gge1008" c_origin="65,396"><text x="65" y="396" stroke="none" text-anchor="end" fill="#333333" font-size="12pt">-2V</text></g><polyline points="70 482.5 1060 482.5" stroke="#333333" stroke-width="1" stroke-dasharray="2,8" fill="none" id="gge1009" class="px1"/><g c_partid="part_annotation" id="gge1010" c_origin="65,482.5"><text x="65" y="482.5" stroke="none" text-anchor="end" fill="#333333" font-size="12pt">-4V</text></g><polyline points="70 569 1060 569" stroke="#333333" stroke-width="1" stroke-dasharray="2,8" fill="none" id="gge1011" class="px1"/><g c_partid="part_annotation" id="gge1012" c_origin="65,569"><text x="65" y="569" stroke="none" text-anchor="end" fill="#333333" font-size="12pt">-6V</text></g><polyline points="146.15384619 521.42500002 146.15384623 517.10000003 146.15384631 508.45000007 146.15384646 491.15000014 146.15384676 456.55000028 146.15384737 387.35000055 146.15384859 248.95000111 146.15384996 93.25 146.1538501 93.25 146.15385037 93.25 146.15385092 93.25 146.15385202 93.25 146.15385421 93.25 146.1538586 93.25 146.15386737 93.25 146.15388492 93.25 146.15392001 93.25 146.15399019 93.25 146.15413056 93.25 146.15441129 93.25 146.15497276 93.25 146.15609569 93.25 146.15834156 93.25 146.1628333 93.25 146.17181677 93.25 146.18978372 93.25 146.22571761 93.25 146.2975854 93.25 146.44132097 93.25 146.72879212 93.25 147.30373441 93.25 148.45361899 93.25 148.74109013 93.25 149.31603242 93.25 150.46591701 93.25 150.75338815 93.25 151.32833044 93.25 152.47821502 93.25 154.57220509 93.25 154.63831647 93.25 154.77053923 93.25 155.03498475 93.25 155.56387579 93.25 156.62165787 93.25 158.73722202 93.25 159.15443102 93.25 159.98884901 93.25 161.65768498 93.25 164.99535693 93.25 171.11040555 93.25 177.00479037 93.25 184.97061912 93.25 193.20261186 93.25 204.91615299 93.25 218.30065676 93.25 238.51640021 93.25 265.28305264 93.25 302.46754783 93.25 302.46755164 93.25 302.46755926 93.25 302.46757449 93.25 302.46760495 93.25 302.46766587 93.25 302.46778772 93.25 302.46803141 93.25 302.46851879 93.25 302.46949356 93.25 302.4714431 93.25 302.47534218 93.25 302.48314033 93.25 302.49873664 93.25 302.52992926 93.25 302.59231449 93.25 302.71708495 93.25 302.96662587 93.25 303.46570772 93.25 304.46387141 93.25 306.46019879 93.25 310.45285356 93.25 318.43816309 93.25 320.56784628 93.25 324.82721265 93.25 328.01973261 93.25 330.15342542 93.25 332.27107972 93.25 332.30315675 93.25 332.36731082 93.25 332.49561895 93.25 332.75223521 93.25 333.26546773 93.25 334.29193277 93.25 334.48553526 93.25 334.87274025 93.25 335.64715022 93.25 335.64715403 93.25 335.64716164 93.25 335.64717687 93.25 335.64720733 93.25 335.64726826 93.25 335.6473901 93.25 335.64763379 93.25 335.64812118 93.25 335.64909595 93.25 335.65104549 93.25 335.65494456 93.25 335.66274272 93.25 335.67833903 93.25 335.70953164 93.25 335.77191687 93.25 335.89668733 93.25 336.14622826 93.25 336.14623206 93.25 336.14623968 93.25 336.14625491 93.25 336.14628537 93.25 336.14634629 93.25 336.14646814 93.25 336.14671183 93.25 336.14719922 93.25 336.14817399 93.25 336.15012353 93.25 336.1540226 93.25 336.16182076 93.25 336.17741706 93.25 336.20860968 93.25 336.27099491 93.25 336.39576537 93.25 336.39576918 93.25 336.39577679 93.25 336.39579202 93.25 336.39582249 93.25 336.39588341 93.25 336.39600526 93.25 336.39624895 93.25 336.39673633 93.25 336.3977111 93.25 336.39966064 93.25 336.40355972 93.25 336.41135787 93.25 336.42695418 93.25 336.45814679 93.25 336.47608012 93.25 336.5025987 93.25 336.50260251 93.25 336.50261013 93.25 336.50262536 93.25 336.50265582 93.25 336.50271674 93.25 336.50283859 93.25 336.50308228 93.25 336.50356967 93.25 336.50454443 93.25 336.50649397 93.25 336.51039305 93.25 336.5181912 93.25 336.52286904 93.25 336.52910968 93.25 336.52911348 93.25 336.5291211 93.25 336.52913633 93.25 336.52916679 93.25 336.52922772 93.25 336.52934956 93.25 336.52959325 93.25 336.53008064 93.25 336.53105541 93.25 336.53300495 93.25 336.53456627 93.25 336.5353427 93.25 336.53689556 93.25 336.53689937 93.25 336.53690698 93.25 336.53692221 93.25 336.53695268 93.25 336.5370136 93.25 336.53713544 93.25 336.53737914 93.25 336.53786652 93.25 336.53787033 93.25 336.53787794 93.25 336.53789318 93.25 336.53792364 93.25 336.53798456 93.25 336.53810641 93.25 336.53822165 93.25 336.53823485 93.25 336.53826124 93.25 336.53831403 93.25 336.53835978 93.25 336.53837385 93.25 336.538402 93.25 336.53840905 93.25 336.53842314 93.25 336.53843716 93.25 336.5384411 93.25 336.53844897 93.25 336.5384496 93.25 336.53845087 93.25 336.53845341 93.25 336.53845847 93.25 336.53846154 93.25 336.53846535 93.25 336.53846573 136.50000058 336.53846649 223.00000173 336.53846763 352.75000046 336.53846915 525.75 336.53846931 525.75 336.53846961 525.75 336.53847022 525.75 336.53847144 525.75 336.53847388 525.75 336.53847875 525.75 336.5384885 525.75 336.53850799 525.75 336.53854698 525.75 336.53862496 525.75 336.53878093 525.75 336.53909285 525.75 336.53971671 525.75 336.54096441 525.75 336.54345982 525.75 336.54845064 525.75 336.55843228 525.75 336.57839555 525.75 336.6183221 525.75 336.69817519 525.75 336.85788138 525.75 337.17729376 525.75 337.81611852 525.75 339.09376804 525.75 339.41318042 525.75 340.05200518 525.75 341.32965471 525.75 341.64818502 525.75 342.28524564 525.75 343.55936689 525.75 345.47598176 525.75 345.59400576 525.75 345.83005374 525.75 346.30214972 525.75 347.24634167 525.75 349.13472557 525.75 352.91149337 525.75 357.58103305 525.75 363.31061965 525.75 369.70389757 525.75 377.6173462 525.75 386.94829543 525.75 398.97258942 525.75 414.19441977 525.75 435.76096058 525.75 467.73523953 525.75 489.73858173 525.75 489.73858554 525.75 489.73859315 525.75 489.73860838 525.75 489.73863885 525.75 489.73869977 525.75 489.73882162 525.75 489.73906531 525.75 489.73955269 525.75 489.74052746 525.75 489.742477 525.75 489.74637608 525.75 489.75417423 525.75 489.76977054 525.75 489.80096315 525.75 489.86334838 525.75 489.98811885 525.75 490.23765977 525.75 490.73674161 525.75 491.73490531 525.75 493.73123269 525.75 497.72388746 525.75 505.70919699 525.75 510.95245785 525.75 516.4365552 525.75 516.436559 525.75 516.43656662 525.75 516.43658185 525.75 516.43661231 525.75 516.43667324 525.75 516.43679508 525.75 516.43703877 525.75 516.43752616 525.75 516.43850093 525.75 516.44045047 525.75 516.44434954 525.75 516.4521477 525.75 516.467744 525.75 516.49893662 525.75 516.56132185 525.75 516.68609231 525.75 516.93563324 525.75 517.43471508 525.75 518.43287877 525.75 520.42920616 525.75 522.93042216 525.75 522.93042596 525.75 522.93043358 525.75 522.93044881 525.75 522.93047927 525.75 522.93054019 525.75 522.93066204 525.75 522.93090573 525.75 522.93139312 525.75 522.93236789 525.75 522.93431743 525.75 522.9382165 525.75 522.94601466 525.75 522.96161096 525.75 522.99280358 525.75 523.05518881 525.75 523.17995927 525.75 523.42950019 525.75 523.92858204 525.75 524.92674573 525.75 524.92674954 525.75 524.92675715 525.75 524.92677239 525.75 524.92680285 525.75 524.92686377 525.75 524.92698562 525.75 524.92722931 525.75 524.92771669 525.75 524.92869146 525.75 524.930641 525.75 524.93454008 525.75 524.94233823 525.75 524.95793454 525.75 524.98912715 525.75 525.05151239 525.75 525.17628285 525.75 525.42582377 525.75 525.92490562 525.75 525.92491323 525.75 525.92492846 525.75 525.92495892 525.75 525.92501985 525.75 525.92514169 525.75 525.92538539 525.75 525.92587277 525.75 525.92684754 525.75 525.92879708 525.75 525.93269615 525.75 525.94049431 525.75 525.95609062 525.75 525.98728323 525.75 526.04966846 525.75 526.17443892 525.75 526.42397985 525.75 526.42399508 525.75 526.42402554 525.75 526.42408646 525.75 526.42420831 525.75 526.424452 525.75 526.42493938 525.75 526.42591415 525.75 526.42786369 525.75 526.43176277 525.75 526.43956092 525.75 526.45515723 525.75 526.48634985 525.75 526.54873508 525.75 526.67350554 525.75 526.673536 525.75 526.67359692 525.75 526.67371877 525.75 526.67396246 525.75 526.67444985 525.75 526.67542462 525.75 526.67737415 525.75 526.68127323 525.75 526.68907138 525.75 526.70466769 525.75 526.73586031 525.75 526.79824554 525.75 526.79830646 525.75 526.79842831 525.75 526.798672 525.75 526.79915938 525.75 526.80013415 525.75 526.80208369 525.75 526.80598277 525.75 526.81378092 525.75 526.82937723 525.75 526.86056985 525.75 526.86069169 525.75 526.86093538 525.75 526.86142277 525.75 526.86239754 525.75 526.86434708 525.75 526.86824615 525.75 526.87604431 525.75 526.89164062 525.75 526.89188431 525.75 526.89237169 525.75 526.89334646 525.75 526.895296 525.75 526.89919508 525.75 526.90699323 525.75 526.90748062 525.75 526.90845538 525.75 526.91040492 525.75 526.914304 525.75 526.91527877 525.75 526.91722831 525.75 526.91917785 525.75 526.91918165 525.75 526.91918927 525.75 526.9192045 525.75 526.91923496 525.75 526.91929588 525.75 526.91941773 525.75 526.91966142 525.75 526.92014881 525.75 526.92112358 525.75 526.92112738 525.75 526.921135 525.75 526.92115023 525.75 526.92118069 525.75 526.92124162 525.75 526.92136346 525.75 526.92160715 525.75 526.92209454 525.75 526.92210215 525.75 526.92211738 525.75 526.92214785 525.75 526.92220877 525.75 526.92233062 525.75 526.92257431 525.75 526.92258954 525.75 526.92262 525.75 526.92268092 525.75 526.92280277 525.75 526.92283323 525.75 526.92289415 525.75 526.92295508 525.75 526.92295888 525.75 526.9229665 525.75 526.92298173 525.75 526.92301219 525.75 526.923016 525.75 526.92302362 525.75 526.92303885 525.75 526.92304646 525.75 526.92306169 525.75 526.9230655 525.75 526.92306931 525.75 526.92307312 525.75 526.92307692 525.75 526.9230773 482.50000242 526.92307807 396.00000127 526.92307921 266.25000254 526.92308073 93.25000023 526.92308088 93.25 526.92308119 93.25 526.9230818 93.25 526.92308302 93.25 526.92308545 93.25 526.92309033 93.25 526.92310007 93.25 526.92311957 93.25 526.92315856 93.25 526.92323654 93.25 526.9233925 93.25 526.92370443 93.25 526.92432828 93.25 526.92557599 93.25 526.9280714 93.25 526.93306222 93.25 526.94304385 93.25 526.96300713 93.25 527.00293367 93.25 527.08278677 93.25 527.24249296 93.25 527.56190535 93.25 528.20073012 93.25 529.47837966 93.25 529.79779205 93.25 530.43661682 93.25 531.71426637 93.25 532.03279671 93.25 532.66985739 93.25 533.94397876 93.25 535.86059399 93.25 535.97861794 93.25 536.21466583 93.25 536.68676162 93.25 537.63095319 93.25 539.51933634 93.25 543.29610263 93.25 547.96564217 93.25 553.69522761 93.25 560.08850526 93.25 568.00195222 93.25 577.33290061 93.25 589.35719174 93.25 604.57901962 93.25 626.14555348 93.25 658.11982249 93.25 680.12320092 93.25 717.30769612 93.25 717.3076965 136.49999758 717.30769726 223.00000473 717.30769878 396.00000704 717.30769992 525.75 717.30770023 525.75 717.30770084 525.75 717.30770206 525.75 717.30770449 525.75 717.30770937 525.75 717.30771911 525.75 717.30773861 525.75 717.3077776 525.75 717.30785558 525.75 717.30801154 525.75 717.30832347 525.75 717.30894732 525.75 717.31019503 525.75 717.31269044 525.75 717.31768126 525.75 717.32766289 525.75 717.34762617 525.75 717.38755272 525.75 717.46740581 525.75 717.62711201 525.75 717.9465244 525.75 718.58534918 525.75 719.86299874 525.75 720.18241113 525.75 720.82123591 525.75 722.09888547 525.75 722.4174158 525.75 723.05447646 525.75 724.32859779 525.75 726.24521286 525.75 726.36323682 525.75 726.59928476 525.75 727.07138063 525.75 728.01557238 525.75 729.90395587 525.75 733.68072285 525.75 738.35026245 525.75 744.07984842 525.75 750.47312619 525.75 758.38657391 525.75 767.71752268 525.75 779.74181512 525.75 794.96364412 525.75 816.53018114 525.75 848.50445468 525.75 870.5078125 525.75 907.69230769 525.75 907.69230807 482.49999642 907.69230883 396.00000127 907.69231036 222.99999896 907.6923115 93.25000023 907.6923118 93.25 907.69231241 93.25 907.69231363 93.25 907.69231607 93.25 907.69232094 93.25 907.69233069 93.25 907.69235019 93.25 907.69238918 93.25 907.69246716 93.25 907.69262312 93.25 907.69293505 93.25 907.6935589 93.25 907.6948066 93.25 907.69730201 93.25 907.70229283 93.25 907.71227447 93.25 907.73223774 93.25 907.77216429 93.25 907.85201739 93.25 908.01172358 93.25 908.33113596 93.25 908.96996072 93.25 910.24761025 93.25 910.56702263 93.25 911.20584739 93.25 912.48349692 93.25 912.80202725 93.25 913.43908791 93.25 914.71320924 93.25 916.62982436 93.25 916.74784832 93.25 916.98389624 93.25 917.45599209 93.25 918.40018378 93.25 920.28856715 93.25 924.0653339 93.25 928.73487348 93.25 934.46445927 93.25 940.85773701 93.25 948.77118447 93.25 958.10213311 93.25 970.12642511 93.25 985.34825374 93.25 1006.9147897 93.25 1038.88906172 93.25" stroke="#FF0000" stroke-width="1" fill="none" id="gge1013" class="px1"/><polyline points="146.15384619 525.74999999 146.15384623 525.74999996 146.15384631 525.74999987 146.15384646 525.74999954 146.15384676 525.74999819 146.15384737 525.7499928 146.15384859 525.74997123 146.15384996 525.74992977 146.1538501 525.74992472 146.15385037 525.74991461 146.15385092 525.74989439 146.15385202 525.74985395 146.15385421 525.74977306 146.1538586 525.7496113 146.15386737 525.74928777 146.15388492 525.7486407 146.15392001 525.74734658 146.15399019 525.74475834 146.15413056 525.73958192 146.15441129 525.72922925 146.15497276 525.70852466 146.15609569 525.66711846 146.15834156 525.58431795 146.1628333 525.41876448 146.17181677 525.0878477 146.18978372 524.42677402 146.22571761 523.10766031 146.2975854 520.48152123 146.44132097 515.27722828 146.72879212 505.05767829 147.30373441 485.35210783 148.45361899 448.7036839 148.74109013 440.1992072 149.31603242 423.59720484 150.46591701 392.72079748 150.75338815 385.55575029 151.32833044 371.56851338 152.47821502 345.55504734 154.57220509 304.19792853 154.63831647 303.01543822 154.77053923 300.66371473 155.03498475 296.0389238 155.56387579 287.09529371 156.62165787 270.36582906 158.73722202 241.05914176 159.15443102 235.98151273 159.98884901 226.17511426 161.65768498 208.51644008 164.99535693 179.79843525 171.11040555 144.00268718 177.00479037 123.61711857 184.97061912 108.21992412 193.20261186 100.44191805 204.91615299 95.6511645 218.30065676 93.90640377 238.51640021 93.29869379 265.28305264 93.24678949 302.46754783 93.25072687 302.46755164 93.25072687 302.46755926 93.25072687 302.46757449 93.25072687 302.46760495 93.25072687 302.46766587 93.25072686 302.46778772 93.25072686 302.46803141 93.25072684 302.46851879 93.25072681 302.46949356 93.25072675 302.4714431 93.25072663 302.47534218 93.25072639 302.48314033 93.25072591 302.49873664 93.25072494 302.52992926 93.25072302 302.59231449 93.25071918 302.71708495 93.25071157 302.96662587 93.25069659 303.46570772 93.25066756 304.46387141 93.25061306 306.46019879 93.25051689 310.45285356 93.25036651 318.43816309 93.25018034 320.56784628 93.25015032 324.82721265 93.25010411 328.01973261 93.25007917 330.15342542 93.25006596 332.27107972 93.25005504 332.30315675 93.25005489 332.36731082 93.25005459 332.49561895 93.250054 332.75223521 93.25005283 333.26546773 93.25005057 334.29193277 93.25004633 334.48553526 93.25004557 334.87274025 93.25004409 335.64715022 93.25004127 335.64715403 93.25004127 335.64716164 93.25004127 335.64717687 93.25004127 335.64720733 93.25004127 335.64726826 93.25004127 335.6473901 93.25004127 335.64763379 93.25004127 335.64812118 93.25004127 335.64909595 93.25004126 335.65104549 93.25004125 335.65494456 93.25004124 335.66274272 93.25004121 335.67833903 93.25004116 335.70953164 93.25004105 335.77191687 93.25004083 335.89668733 93.2500404 336.14622826 93.25003955 336.14623206 93.25003955 336.14623968 93.25003955 336.14625491 93.25003955 336.14628537 93.25003955 336.14634629 93.25003955 336.14646814 93.25003955 336.14671183 93.25003955 336.14719922 93.25003955 336.14817399 93.25003954 336.15012353 93.25003954 336.1540226 93.25003952 336.16182076 93.2500395 336.17741706 93.25003944 336.20860968 93.25003934 336.27099491 93.25003913 336.39576537 93.25003872 336.39576918 93.25003872 336.39577679 93.25003872 336.39579202 93.25003872 336.39582249 93.25003872 336.39588341 93.25003872 336.39600526 93.25003872 336.39624895 93.25003871 336.39673633 93.25003871 336.3977111 93.25003871 336.39966064 93.2500387 336.40355972 93.25003869 336.41135787 93.25003867 336.42695418 93.25003861 336.45814679 93.25003851 336.47608012 93.25003845 336.5025987 93.25003837 336.50260251 93.25003837 336.50261013 93.25003837 336.50262536 93.25003837 336.50265582 93.25003837 336.50271674 93.25003836 336.50283859 93.25003836 336.50308228 93.25003836 336.50356967 93.25003836 336.50454443 93.25003836 336.50649397 93.25003835 336.51039305 93.25003834 336.5181912 93.25003831 336.52286904 93.2500383 336.52910968 93.25003828 336.52911348 93.25003828 336.5291211 93.25003828 336.52913633 93.25003828 336.52916679 93.25003828 336.52922772 93.25003828 336.52934956 93.25003828 336.52959325 93.25003828 336.53008064 93.25003828 336.53105541 93.25003827 336.53300495 93.25003827 336.53456627 93.25003826 336.5353427 93.25003826 336.53689556 93.25003825 336.53689937 93.25003825 336.53690698 93.25003825 336.53692221 93.25003825 336.53695268 93.25003825 336.5370136 93.25003825 336.53713544 93.25003825 336.53737914 93.25003825 336.53786652 93.25003825 336.53787033 93.25003825 336.53787794 93.25003825 336.53789318 93.25003825 336.53792364 93.25003825 336.53798456 93.25003825 336.53810641 93.25003825 336.53822165 93.25003825 336.53823485 93.25003825 336.53826124 93.25003825 336.53831403 93.25003825 336.53835978 93.25003825 336.53837385 93.25003825 336.538402 93.25003825 336.53840905 93.25003825 336.53842314 93.25003825 336.53843716 93.25003825 336.5384411 93.25003825 336.53844897 93.25003825 336.5384496 93.25003825 336.53845087 93.25003825 336.53845341 93.25003825 336.53845847 93.25003825 336.53846154 93.25003825 336.53846535 93.25003825 336.53846573 93.25003965 336.53846649 93.25004527 336.53846763 93.25006423 336.53846915 93.25010916 336.53846931 93.25011478 336.53846961 93.25012601 336.53847022 93.25014848 336.53847144 93.25019341 336.53847388 93.25028328 336.53847875 93.25046302 336.5384885 93.2508225 336.53850799 93.25154146 336.53854698 93.25297938 336.53862496 93.25585519 336.53878093 93.26160677 336.53909285 93.27310968 336.53971671 93.29611459 336.54096441 93.34212075 336.54345982 93.43411837 336.54845064 93.6180549 336.55843228 93.98569324 336.57839555 94.72003202 336.6183221 96.18496588 336.69817519 99.09992242 336.85788138 104.87069493 337.17729376 116.17965043 337.81611852 137.89803732 339.09376804 177.96905097 339.41318042 187.18998361 340.05200518 205.14288823 341.32965471 238.26648483 341.64818502 245.86822164 342.28524564 260.66967984 343.55936689 287.98478032 345.47598176 323.90661267 345.59400576 325.91766562 345.83005374 329.89969753 346.30214972 337.6280615 347.24634167 352.18759449 349.13472557 378.05213408 352.91149337 419.01992358 357.58103305 454.46039777 363.31061965 482.45151325 369.70389757 500.99969837 377.6173462 513.48726774 386.94829543 520.46718399 398.97258942 524.04794545 414.19441977 525.38766888 435.76096058 525.73479881 467.73523953 525.75233625 489.73858173 525.75007462 489.73858554 525.75007462 489.73859315 525.75007462 489.73860838 525.75007462 489.73863885 525.75007462 489.73869977 525.75007462 489.73882162 525.75007462 489.73906531 525.75007462 489.73955269 525.75007462 489.74052746 525.75007461 489.742477 525.7500746 489.74637608 525.75007457 489.75417423 525.75007453 489.76977054 525.75007443 489.80096315 525.75007423 489.86334838 525.75007383 489.98811885 525.75007305 490.23765977 525.75007152 490.73674161 525.75006854 491.73490531 525.75006294 493.73123269 525.75005307 497.72388746 525.75003763 505.70919699 525.75001851 510.95245785 525.75001175 516.4365552 525.7500073 516.436559 525.7500073 516.43656662 525.7500073 516.43658185 525.7500073 516.43661231 525.7500073 516.43667324 525.7500073 516.43679508 525.7500073 516.43703877 525.7500073 516.43752616 525.7500073 516.43850093 525.7500073 516.44045047 525.75000729 516.44434954 525.75000729 516.4521477 525.75000729 516.467744 525.75000728 516.49893662 525.75000726 516.56132185 525.75000722 516.68609231 525.75000714 516.93563324 525.75000699 517.43471508 525.7500067 518.43287877 525.75000615 520.42920616 525.75000519 522.93042216 525.75000419 522.93042596 525.75000419 522.93043358 525.75000419 522.93044881 525.75000419 522.93047927 525.75000419 522.93054019 525.75000419 522.93066204 525.75000419 522.93090573 525.75000419 522.93139312 525.75000419 522.93236789 525.75000419 522.93431743 525.75000419 522.9382165 525.75000419 522.94601466 525.75000418 522.96161096 525.75000418 522.99280358 525.75000417 523.05518881 525.75000414 523.17995927 525.7500041 523.42950019 525.75000401 523.92858204 525.75000385 524.92674573 525.75000353 524.92674954 525.75000353 524.92675715 525.75000353 524.92677239 525.75000353 524.92680285 525.75000353 524.92686377 525.75000353 524.92698562 525.75000353 524.92722931 525.75000353 524.92771669 525.75000353 524.92869146 525.75000353 524.930641 525.75000353 524.93454008 525.75000353 524.94233823 525.75000353 524.95793454 525.75000352 524.98912715 525.75000351 525.05151239 525.7500035 525.17628285 525.75000346 525.42582377 525.75000339 525.92490562 525.75000324 525.92491323 525.75000324 525.92492846 525.75000324 525.92495892 525.75000324 525.92501985 525.75000324 525.92514169 525.75000324 525.92538539 525.75000324 525.92587277 525.75000324 525.92684754 525.75000324 525.92879708 525.75000324 525.93269615 525.75000324 525.94049431 525.75000324 525.95609062 525.75000324 525.98728323 525.75000323 526.04966846 525.75000321 526.17443892 525.75000318 526.42397985 525.75000311 526.42399508 525.75000311 526.42402554 525.75000311 526.42408646 525.75000311 526.42420831 525.75000311 526.424452 525.75000311 526.42493938 525.75000311 526.42591415 525.75000311 526.42786369 525.75000311 526.43176277 525.75000311 526.43956092 525.75000311 526.45515723 525.7500031 526.48634985 525.75000309 526.54873508 525.75000308 526.67350554 525.75000304 526.673536 525.75000304 526.67359692 525.75000304 526.67371877 525.75000304 526.67396246 525.75000304 526.67444985 525.75000304 526.67542462 525.75000304 526.67737415 525.75000304 526.68127323 525.75000304 526.68907138 525.75000304 526.70466769 525.75000304 526.73586031 525.75000303 526.79824554 525.75000301 526.79830646 525.75000301 526.79842831 525.75000301 526.798672 525.75000301 526.79915938 525.75000301 526.80013415 525.75000301 526.80208369 525.75000301 526.80598277 525.75000301 526.81378092 525.75000301 526.82937723 525.750003 526.86056985 525.750003 526.86069169 525.750003 526.86093538 525.750003 526.86142277 525.750003 526.86239754 525.750003 526.86434708 525.75000299 526.86824615 525.75000299 526.87604431 525.75000299 526.89164062 525.75000299 526.89188431 525.75000299 526.89237169 525.75000299 526.89334646 525.75000299 526.895296 525.75000299 526.89919508 525.75000299 526.90699323 525.75000298 526.90748062 525.75000298 526.90845538 525.75000298 526.91040492 525.75000298 526.914304 525.75000298 526.91527877 525.75000298 526.91722831 525.75000298 526.91917785 525.75000298 526.91918165 525.75000298 526.91918927 525.75000298 526.9192045 525.75000298 526.91923496 525.75000298 526.91929588 525.75000298 526.91941773 525.75000298 526.91966142 525.75000298 526.92014881 525.75000298 526.92112358 525.75000298 526.92112738 525.75000298 526.921135 525.75000298 526.92115023 525.75000298 526.92118069 525.75000298 526.92124162 525.75000298 526.92136346 525.75000298 526.92160715 525.75000298 526.92209454 525.75000298 526.92210215 525.75000298 526.92211738 525.75000298 526.92214785 525.75000298 526.92220877 525.75000298 526.92233062 525.75000298 526.92257431 525.75000298 526.92258954 525.75000298 526.92262 525.75000298 526.92268092 525.75000298 526.92280277 525.75000298 526.92283323 525.75000298 526.92289415 525.75000298 526.92295508 525.75000298 526.92295888 525.75000298 526.9229665 525.75000298 526.92298173 525.75000298 526.92301219 525.75000298 526.923016 525.75000298 526.92302362 525.75000298 526.92303885 525.75000298 526.92304646 525.75000298 526.92306169 525.75000298 526.9230655 525.75000298 526.92306931 525.75000298 526.92307312 525.75000298 526.92307692 525.75000298 526.9230773 525.75000158 526.92307807 525.74999596 526.92307921 525.749977 526.92308073 525.74993207 526.92308088 525.74992645 526.92308119 525.74991522 526.9230818 525.74989275 526.92308302 525.74984781 526.92308545 525.74975794 526.92309033 525.7495782 526.92310007 525.74921872 526.92311957 525.74849976 526.92315856 525.74706185 526.92323654 525.74418603 526.9233925 525.73843446 526.92370443 525.72693155 526.92432828 525.70392663 526.92557599 525.65792047 526.9280714 525.56592284 526.93306222 525.38198628 526.94304385 525.0143479 526.96300713 524.28000905 527.00293367 522.81507502 527.08278677 519.90011815 527.24249296 514.12934499 527.56190535 502.82038823 528.20073012 481.10199892 529.47837966 441.03098086 529.79779205 431.81004723 530.43661682 413.85714067 531.71426637 380.73354053 532.03279671 373.13180235 532.66985739 358.33034152 533.94397876 331.01523639 535.86059399 295.09339536 535.97861794 293.08234312 536.21466583 289.10031261 536.68676162 281.37195125 537.63095319 266.81242286 539.51933634 240.94789022 543.29610263 199.98010804 547.96564217 164.53962422 553.69522761 136.54850469 560.08850526 118.00031247 568.00195222 105.51273961 577.33290061 98.53281963 589.35719174 94.95205628 604.57901962 93.61233162 626.14555348 93.26520127 658.11982249 93.24766374 680.12320092 93.24992538 717.30769612 93.25001689 717.3076965 93.2500183 717.30769726 93.25002392 717.30769878 93.250052 717.30769992 93.25008781 717.30770023 93.25009904 717.30770084 93.25012151 717.30770206 93.25016644 717.30770449 93.25025631 717.30770937 93.25043605 717.30771911 93.25079553 717.30773861 93.25151449 717.3077776 93.25295241 717.30785558 93.25582822 717.30801154 93.2615798 717.30832347 93.27308271 717.30894732 93.29608763 717.31019503 93.34209378 717.31269044 93.43409142 717.31768126 93.61802797 717.32766289 93.98566634 717.34762617 94.72000518 717.38755272 96.18493918 717.46740581 99.09989599 717.62711201 104.87066904 717.9465244 116.17962558 718.58534918 137.89801445 719.86299874 177.96903166 720.18241113 187.18996508 720.82123591 205.14287123 722.09888547 238.26647057 722.4174158 245.86820818 723.05447646 260.66966792 724.32859779 287.98477111 726.24521286 323.9066083 726.36323682 325.91766086 726.59928476 329.89969201 727.07138063 337.62805455 728.01557238 352.18758503 729.90395587 378.05212083 733.68072285 419.01990635 738.35026245 454.46038579 744.07984842 482.45150348 750.47312619 500.99969246 758.38657391 513.48726374 767.71752268 520.46718202 779.74181512 524.0479445 794.96364412 525.38766861 816.53018114 525.73479877 848.50445468 525.75233625 870.5078125 525.75007462 907.69230769 525.7499831 907.69230807 525.7499817 907.69230883 525.74997608 907.69231036 525.749948 907.6923115 525.74991219 907.6923118 525.74990096 907.69231241 525.74987849 907.69231363 525.74983356 907.69231607 525.74974369 907.69232094 525.74956395 907.69233069 525.74920447 907.69235019 525.74848551 907.69238918 525.74704759 907.69246716 525.74417178 907.69262312 525.7384202 907.69293505 525.72691729 907.6935589 525.70391237 907.6948066 525.65790622 907.69730201 525.56590859 907.70229283 525.38197204 907.71227447 525.01433368 907.73223774 524.27999486 907.77216429 522.8150609 907.85201739 519.90010417 908.01172358 514.12933128 908.33113596 502.82037503 908.96996072 481.10198672 910.24761025 441.03097045 910.56702263 431.81003722 911.20584739 413.85713143 912.48349692 380.73353269 912.80202725 373.13179494 913.43908791 358.33033495 914.71320924 331.01523129 916.62982436 295.09339293 916.74784832 293.08234048 916.98389624 289.10030954 917.45599209 281.37194739 918.40018378 266.81241761 920.28856715 240.94788287 924.0653339 199.98009847 928.73487348 164.53961756 934.46445927 136.54849926 940.85773701 118.00030919 948.77118447 105.51273738 958.10213311 98.53281854 970.12642511 94.95205576 985.34825374 93.61233147 1006.9147897 93.26520125 1038.88906172 93.24766375" stroke="#0000FF" stroke-width="1" fill="none" id="gge1014" class="px1"/></g></svg>